<svg preserveAspectRatio="none" overflow="visible" style="display: block;" width="39.103" height="39.103" viewBox="0 0 39.103 39.103" fill="none" xmlns="http://www.w3.org/2000/svg">
<g id="Group 95">
<circle id="Ellipse 3" cx="19.5515" cy="19.5515" r="19.5515" fill="white"/>
<g id="Layer_2">
<path id="Vector" d="M9.99618 28.0667C10.0129 27.8905 10.0969 27.7201 10.2462 27.5777L28.644 12.5458C28.9384 12.3049 29.4098 12.346 29.6542 12.6338C29.8986 12.9216 29.8548 13.3841 29.5604 13.625L11.185 28.6588C10.8906 28.8997 10.4192 28.8586 10.1748 28.5708C10.0526 28.4269 9.97951 28.2429 9.99618 28.0667Z" fill="black"/>
<path id="Vector_2" d="M27.3963 24.7935L28.4915 13.1379C28.5287 12.742 28.8693 12.4615 29.27 12.4966C29.6708 12.5317 29.9535 12.867 29.9163 13.2628L28.821 24.9184C28.7838 25.3143 28.4432 25.5948 28.0425 25.5597C27.6418 25.5245 27.3591 25.1893 27.3963 24.7935Z" fill="black"/>
<path id="Vector_3" d="M16.3946 11.8952C16.4322 11.4954 16.7762 11.212 17.181 11.2475L29.0988 12.2926C29.5036 12.3281 29.7891 12.6667 29.7516 13.0665C29.714 13.4663 29.37 13.7496 28.9652 13.7141L17.0474 12.669C16.6426 12.6335 16.3571 12.295 16.3946 11.8952Z" fill="black"/>
</g>
</g>
</svg>
